<?xml version="1.0" encoding="UTF-8"?>
<svg id="_レイヤー_1" xmlns="http://www.w3.org/2000/svg" version="1.1" viewBox="0 0 639.9 454.7">
  <!-- Generator: Adobe Illustrator 29.0.1, SVG Export Plug-In . SVG Version: 2.1.0 Build 192)  -->
  <defs>
    <style>
      .st0 {
        fill: #0553dd;
      }
    </style>
  </defs>
  <path class="st0" d="M523.3,346.1c32.8,18,51.6,50,49.2,82-1.6,19.5-2.3,20.3-27.3,23.4-15.6,2.3-114.1,3.1-215.6,3.1s-235.2-2.3-243.8-4.7c-34.4-8.6-15.6-71.1,29.7-100.8,35.2-22.7,107-57,126.6-60.9,26.6-5.5,29.7-21.9,0-75-7-11.7-14.8-47.7-15.6-85.2-.8-60.9,10.9-102.3,64.1-122.7,10.9-3.9,21.9-5.5,32-5.5,35.2,0,68,19.5,81.2,48.4,19.5,38.3,11.7,140.6-8.6,177.3-23.4,41.4-21.1,54.7,4.7,61.7,17.2,4.7,70.3,29.7,123.4,58.6h0v.3ZM98.3,322.7c-12.5,8.6-24.2,19.5-33.6,30.5-29.7,0-52.4-.8-54.7-1.6-19.5-4.7-8.6-40.6,17.2-56.2,19.5-12.5,59.4-32,70.3-34.4,14.1-3.1,17.2-11.7,0-41.4-3.9-6.2-8.6-26.6-8.6-47.7-.8-34.4,6.2-57.8,36-68,25-9.4,53.1,2.3,63.3,23.4,10.2,21.9,4.7,78.1-6.2,98.4-12.5,24.2-10.2,30.5,3.9,34.4,3.1.8,9.4,3.9,18,7.8-34.4,14.1-81.2,39.8-105.5,54.7h-.1ZM612.4,293c18.8,10.2,28.9,27.3,27.3,45.3-.8,10.9-.8,11.7-14.8,13.3-3.9.8-21.9,1.6-45.3,1.6-10.2-13.3-24.2-25.8-41.4-34.4-32-18.8-71.1-39.1-100-51.6,7.8-3.1,14.8-5.5,18-6.2,14.8-3.1,17.2-11.7,0-41.4-3.1-6.2-8.6-26.6-8.6-47.7-.8-34.4,5.5-57.8,35.2-68,25.8-9.4,53.9,2.3,63.3,23.4,10.2,21.9,6.2,78.1-4.7,98.4-12.5,24.2-10.9,30.5,2.3,34.4,9.4,3.1,39.1,17.2,68.8,32.8h0Z"/>
</svg>