<?xml version="1.0" encoding="UTF-8"?>
<svg id="_レイヤー_1" data-name="レイヤー_1" xmlns="http://www.w3.org/2000/svg" version="1.1" viewBox="0 0 16 12">
  <!-- Generator: Adobe Illustrator 29.0.1, SVG Export Plug-In . SVG Version: 2.1.0 Build 192)  -->
  <path d="M0,2C0,.9.9,0,2,0h12c1.1,0,2,.9,2,2v8c0,1.1-.9,2-2,2H2c-1.1,0-2-.9-2-2V2ZM2,1c-.6,0-1,.4-1,1v.2l7,4.2,7-4.2v-.2c0-.6-.4-1-1-1H2ZM15,3.4l-4.7,2.8,4.7,2.9V3.4ZM15,10.3l-5.6-3.5-1.3.8-1.3-.8-5.6,3.5c.1.4.5.7,1,.7h12c.5,0,.8-.3,1-.7M1,9.1l4.7-2.9L1,3.4v5.7Z"/>
</svg>