<?xml version="1.0" encoding="UTF-8"?>
<svg id="_レイヤー_2" xmlns="http://www.w3.org/2000/svg" version="1.1" viewBox="0 0 165.9 159.3">
  <!-- Generator: Adobe Illustrator 29.0.1, SVG Export Plug-In . SVG Version: 2.1.0 Build 192)  -->
  <defs>
    <style>
      .st0 {
        fill: #0049a4;
      }
    </style>
  </defs>
  <path d="M75.9,21.2h-1.5l-.4-5.5c.2,0-1.1-6.2-9.2-6.5-7.3-.2-37.9.4-37.9.4v56.9h32.8s6.5,0,6.6-11.5h1.7v28.3h-1.8s.4-11.8-6.5-11.8-33.1,0-33.1,0l-.2,50c-.3.8,2.8,10.4,14.3,9.4v2.1H0v-2.1s13.8,0,14.2-8.6,0-108.5,0-108.5c0-.1-1.6-8.2-14.2-8.2v-1.9h63.5c0-.2,4.7.7,12.3-3.6v21.2h0Z"/>
  <circle cx="97.8" cy="12.2" r="8.7"/>
  <circle class="st0" cx="8.7" cy="150.6" r="8.7"/>
  <path class="st0" d="M148.8,143.7L98.7,25.6l-49.5,119s-6.6,9.9-16.9,9.6v1.7h36.6v-2.2s-10,.6-9.2-8.3l12.8-33.8h49l12.4,33.4s2.1,8.6-9.2,8.5v2.4h41.3v-2.4s-12.6.4-17.1-9.8h0ZM75,105.4l22.7-57.3,21.3,57.3h-44Z"/>
</svg>