<?xml version="1.0" encoding="UTF-8"?>
<svg xmlns="http://www.w3.org/2000/svg" viewBox="0 0 296.64 47.67">
  <g style="fill: #0553dd;">
    <path d="M97.89,34.24l-5.26-26.6h4.86l2.27,13.43c.24,1.39.47,2.8.7,4.21.23,1.42.45,2.84.67,4.28h.14c.29-1.44.58-2.87.86-4.28.29-1.42.58-2.82.86-4.21l3.24-13.43h4.14l3.24,13.43c.31,1.37.61,2.77.88,4.19.28,1.43.57,2.86.88,4.3h.18c.19-1.44.4-2.87.61-4.28.22-1.42.42-2.82.61-4.21l2.34-13.43h4.54l-5.08,26.6h-5.9l-3.28-13.97c-.22-1.03-.43-2.05-.63-3.06-.2-1.01-.39-2.03-.56-3.06h-.14c-.17,1.03-.36,2.05-.58,3.06-.22,1.01-.42,2.03-.61,3.06l-3.2,13.97h-5.8Z"/>
    <path d="M135.58,34.74c-1.66,0-3.21-.41-4.66-1.24-1.45-.83-2.62-2.03-3.51-3.6-.89-1.57-1.33-3.45-1.33-5.63s.44-4.13,1.33-5.69c.89-1.56,2.06-2.75,3.51-3.58,1.45-.83,3.01-1.24,4.66-1.24,1.25,0,2.44.23,3.58.7,1.14.47,2.15,1.15,3.04,2.05.89.9,1.59,2,2.11,3.29.52,1.3.77,2.78.77,4.46,0,2.18-.44,4.06-1.33,5.63-.89,1.57-2.06,2.77-3.51,3.6-1.45.83-3.01,1.24-4.66,1.24ZM135.58,30.86c.98,0,1.82-.27,2.52-.81.7-.54,1.23-1.31,1.6-2.3.37-1,.56-2.15.56-3.47s-.19-2.51-.56-3.51c-.37-1-.91-1.76-1.6-2.3-.7-.54-1.54-.81-2.52-.81s-1.79.27-2.48.81c-.7.54-1.23,1.31-1.6,2.3-.37,1-.56,2.17-.56,3.51s.19,2.48.56,3.47c.37,1,.91,1.76,1.6,2.3.7.54,1.52.81,2.48.81Z"/>
    <path d="M149.73,34.24V14.26h3.85l.4,3.56h.07c.72-1.3,1.58-2.3,2.59-3.01,1.01-.71,2.04-1.06,3.1-1.06.53,0,.97.04,1.31.11.35.07.67.18.95.32l-.79,4.07c-.36-.1-.69-.17-.99-.23-.3-.06-.67-.09-1.1-.09-.77,0-1.59.31-2.47.94-.88.62-1.61,1.69-2.21,3.2v12.17h-4.72Z"/>
    <path d="M164.96,34.24V5.55h4.64v17.82h.14l7.27-9.11h5.22l-6.8,8.17,7.49,11.81h-5.11l-5.15-8.68-3.06,3.56v5.11h-4.64Z"/>
    <path d="M202.47,34.74c-1.82,0-3.56-.34-5.22-1.03-1.66-.68-3.11-1.64-4.36-2.86l2.74-3.28c.96.91,2.05,1.64,3.26,2.2,1.21.55,2.43.83,3.65.83,1.51,0,2.66-.31,3.44-.94s1.17-1.44,1.17-2.45c0-.74-.18-1.34-.54-1.8-.36-.46-.85-.85-1.46-1.17-.61-.32-1.31-.65-2.11-.99l-3.64-1.55c-.86-.36-1.71-.84-2.54-1.44-.83-.6-1.51-1.36-2.05-2.29-.54-.92-.81-2.02-.81-3.29,0-1.44.38-2.72,1.15-3.85.77-1.13,1.83-2.02,3.19-2.68,1.36-.66,2.9-.99,4.63-.99,1.56,0,3.06.3,4.5.9,1.44.6,2.68,1.43,3.71,2.48l-2.45,3.02c-.84-.72-1.72-1.28-2.65-1.69-.92-.41-1.96-.61-3.11-.61-1.25,0-2.24.28-2.99.83-.74.55-1.12,1.31-1.12,2.27,0,.7.2,1.27.59,1.73.4.46.91.83,1.55,1.13.64.3,1.33.61,2.07.92l3.56,1.48c1.06.43,1.99.97,2.79,1.6.8.64,1.43,1.4,1.89,2.3.46.9.68,2,.68,3.29,0,1.44-.38,2.76-1.13,3.96-.76,1.2-1.85,2.16-3.28,2.88-1.43.72-3.14,1.08-5.13,1.08Z"/>
    <path d="M224.79,34.74c-1.82,0-3.46-.41-4.91-1.24-1.45-.83-2.6-2.03-3.46-3.6-.85-1.57-1.28-3.45-1.28-5.63s.47-4.13,1.4-5.69c.94-1.56,2.17-2.75,3.69-3.58,1.52-.83,3.17-1.24,4.95-1.24,1.25,0,2.35.22,3.31.65.96.43,1.8.97,2.52,1.62l-2.27,3.02c-.53-.46-1.06-.8-1.58-1.04-.53-.24-1.11-.36-1.73-.36-1.06,0-2,.27-2.83.81s-1.47,1.31-1.93,2.3c-.46,1-.68,2.17-.68,3.51s.23,2.48.68,3.47c.46,1,1.08,1.76,1.87,2.3.79.54,1.69.81,2.7.81.79,0,1.54-.16,2.23-.49.7-.32,1.33-.73,1.91-1.21l1.91,3.13c-.94.82-1.97,1.43-3.11,1.84-1.14.41-2.27.61-3.4.61Z"/>
    <path d="M243.44,34.74c-1.66,0-3.21-.41-4.66-1.24-1.45-.83-2.62-2.03-3.51-3.6-.89-1.57-1.33-3.45-1.33-5.63s.44-4.13,1.33-5.69c.89-1.56,2.06-2.75,3.51-3.58,1.45-.83,3.01-1.24,4.66-1.24,1.25,0,2.44.23,3.58.7,1.14.47,2.15,1.15,3.04,2.05s1.59,2,2.11,3.29c.52,1.3.77,2.78.77,4.46,0,2.18-.45,4.06-1.33,5.63-.89,1.57-2.06,2.77-3.51,3.6-1.45.83-3.01,1.24-4.66,1.24ZM243.44,30.86c.98,0,1.82-.27,2.52-.81.7-.54,1.23-1.31,1.6-2.3.37-1,.56-2.15.56-3.47s-.19-2.51-.56-3.51c-.37-1-.91-1.76-1.6-2.3-.7-.54-1.54-.81-2.52-.81s-1.79.27-2.48.81c-.7.54-1.23,1.31-1.6,2.3-.37,1-.56,2.17-.56,3.51s.19,2.48.56,3.47c.37,1,.9,1.76,1.6,2.3.7.54,1.52.81,2.48.81Z"/>
    <path d="M257.58,42.12V14.26h3.85l.4,2.12h.07c.86-.72,1.81-1.34,2.84-1.85,1.03-.52,2.09-.77,3.17-.77,1.68,0,3.11.43,4.29,1.28,1.18.85,2.07,2.03,2.68,3.55.61,1.51.92,3.3.92,5.36,0,2.28-.41,4.22-1.22,5.83s-1.87,2.84-3.17,3.69c-1.29.85-2.68,1.28-4.14,1.28-.89,0-1.76-.2-2.63-.59-.86-.4-1.69-.94-2.48-1.64l.14,3.35v6.26h-4.72ZM266.26,30.82c.89,0,1.69-.26,2.39-.77s1.27-1.28,1.67-2.29.61-2.26.61-3.74c0-1.34-.15-2.49-.45-3.44-.3-.95-.76-1.67-1.39-2.18-.62-.5-1.45-.76-2.48-.76-.72,0-1.43.19-2.12.56-.7.37-1.43.93-2.2,1.67v9.29c.72.62,1.42,1.06,2.11,1.3.68.24,1.3.36,1.85.36Z"/>
    <path d="M289.05,34.74c-1.85,0-3.52-.42-5-1.26s-2.67-2.04-3.55-3.6c-.88-1.56-1.31-3.43-1.31-5.62,0-1.63.26-3.09.77-4.37.52-1.28,1.21-2.39,2.09-3.31.88-.92,1.86-1.63,2.95-2.11,1.09-.48,2.23-.72,3.4-.72,1.8,0,3.31.4,4.54,1.21,1.22.8,2.15,1.92,2.77,3.35.62,1.43.94,3.08.94,4.95,0,.46-.02.88-.05,1.28-.04.4-.09.73-.16.99h-12.64c.12,1.18.44,2.17.97,2.99.53.82,1.21,1.45,2.03,1.89.83.44,1.78.67,2.86.67.84,0,1.63-.13,2.38-.38s1.49-.61,2.23-1.06l1.62,2.95c-.94.62-1.99,1.14-3.17,1.55-1.18.41-2.4.61-3.67.61ZM283.72,22.32h8.89c0-1.51-.35-2.71-1.04-3.58-.7-.88-1.73-1.31-3.1-1.31-.74,0-1.45.19-2.12.56-.67.37-1.24.92-1.71,1.64-.47.72-.77,1.62-.92,2.7Z"/>
  </g>
  <g>
    <circle cx="23.84" cy="23.84" r="23.84" style="fill: #0553dd; opacity: .8;"/>
    <circle cx="55.16" cy="23.84" r="23.84" style="fill: #0553dd; opacity: .4;"/>
  </g>
</svg>