<?xml version="1.0" encoding="UTF-8"?>
<svg id="_レイヤー_2" xmlns="http://www.w3.org/2000/svg" version="1.1" viewBox="0 0 240.1 56.5">
  <!-- Generator: Adobe Illustrator 29.0.1, SVG Export Plug-In . SVG Version: 2.1.0 Build 192)  -->
  <defs>
    <style>
      .st0 {
        fill: none;
      }

      .st1 {
        fill: #0049a4;
      }
    </style>
  </defs>
  <g id="_レイヤー_2-2">
    <g>
      <g>
        <path d="M25.8,8.3h-.5v-1.9c0,0-.5-2.1-3.3-2.2-2.5,0-12.9.1-12.9.1v19.4h11.2s2.2,0,2.2-3.9h.6v9.6h-.6s.1-4-2.2-4-11.2,0-11.2,0v17c-.2.3.9,3.5,4.8,3.2v.7H0v-.7s4.7,0,4.8-2.9,0-36.9,0-36.9c0,0-.5-2.8-4.8-2.8v-.7h21.6c0,0,1.6.2,4.2-1.2v7.2h0Z"/>
        <circle cx="33.3" cy="5.3" r="3"/>
        <circle class="st1" cx="3.1" cy="52.4" r="3"/>
        <path class="st1" d="M50.6,50L33.6,9.9l-16.9,40.5s-2.2,3.4-5.8,3.3v.6h12.4v-.8s-3.4.2-3.1-2.8l4.3-11.5h16.7l4.2,11.4s.7,2.9-3.1,2.9v.8h14v-.8s-4.3.1-5.8-3.3h0ZM25.5,37l7.7-19.5,7.2,19.5h-15Z"/>
        <rect class="st0" width="56.5" height="56.5"/>
      </g>
      <g>
        <g>
          <path d="M77.2,41.4l.7.3c-.1.5-.2,1.1-.4,1.7-.2.6-.3,1.2-.5,1.7-.2.6-.4,1.1-.6,1.6-.2.5-.4.9-.7,1.2,0-.1,0-.2-.2-.4,0-.2-.2-.3-.2-.5,0-.2-.2-.3-.2-.4.2-.3.4-.7.7-1.1.2-.4.4-.8.6-1.3s.4-1,.5-1.5.3-1,.4-1.4h0ZM75.4,40.5h4.8v1.2h-4.8v-1.2ZM77.3,38h1.2v12.5h-1.2v-12.5ZM78.4,42.1c0,0,.2.3.4.5.2.2.3.5.5.8s.3.5.5.8c.2.2.3.4.3.5l-.8.9c0-.2-.2-.4-.3-.7-.1-.3-.3-.6-.4-.9s-.3-.6-.4-.8-.3-.5-.3-.6l.6-.5h0ZM83,44.3l1,.3c-.3.7-.6,1.4-1,2-.4.7-.8,1.3-1.3,1.8-.5.5-.9,1-1.4,1.4,0,0-.2-.2-.3-.3s-.2-.2-.3-.4-.2-.2-.3-.3c.5-.3,1-.7,1.4-1.2.4-.5.8-1,1.2-1.6s.7-1.2.9-1.8h0ZM81.3,38.6l1.2.2c-.1.9-.3,1.7-.6,2.5s-.6,1.5-.9,2.1c0,0-.2-.1-.3-.2s-.2-.2-.4-.2-.2-.1-.3-.2c.3-.5.6-1.1.8-1.9.2-.7.4-1.5.5-2.3h0ZM80.3,43.8h7.4v1.2h-7.4v-1.2ZM81.6,40.4h5.6v1.2h-5.6v-1.2ZM83.4,38h1.2v12.5h-1.2v-12.5ZM85.1,44.4c.2.5.4,1.1.8,1.7s.7,1.1,1,1.5.8.9,1.1,1.2c0,0-.2.2-.3.3s-.2.2-.3.4c-.1.1-.2.2-.3.4-.4-.4-.8-.8-1.1-1.4-.4-.5-.7-1.1-1-1.8-.3-.6-.6-1.3-.8-1.9l.9-.3h0Z"/>
          <path d="M90,40.4h12.1v1.3h-12.1v-1.3ZM90,48.9c.5,0,1.2-.2,1.9-.4s1.5-.3,2.3-.5c.8-.2,1.7-.3,2.5-.5v1.1c-.7.2-1.4.3-2.2.5s-1.5.3-2.2.5c-.7.2-1.4.3-1.9.4l-.4-1.3h0ZM90.5,43.5h5.9v1.2h-5.9v-1.2ZM92.7,44.2h1.3v4.7h-1.3v-4.7ZM96.8,38h1.4c0,1.2,0,2.3,0,3.4s.2,2.1.3,3.1c.2.9.3,1.8.6,2.5s.5,1.2.7,1.6c.3.4.6.6.8.6s.3-.2.4-.6c0-.4.2-1,.2-1.9.1.1.3.3.5.4s.4.2.6.3c0,.8-.2,1.4-.3,1.9-.1.5-.3.8-.6,1-.2.2-.6.3-.9.3s-.9-.2-1.3-.5c-.4-.3-.7-.8-1-1.3s-.5-1.2-.7-2c-.2-.8-.4-1.6-.5-2.6-.1-.9-.2-1.9-.3-2.9s0-2.1,0-3.2ZM98.9,38.7l.8-.7c.2.2.5.3.7.5s.5.4.7.6c.2.2.4.3.5.5l-.9.8c-.1-.2-.3-.3-.5-.5s-.4-.4-.7-.6c-.2-.2-.5-.4-.7-.5Z"/>
          <path d="M110.5,39.2c-.4.5-.8,1.1-1.4,1.6-.6.5-1.2,1.1-1.9,1.6s-1.4.9-2.2,1.3c0-.1-.1-.2-.2-.4s-.2-.3-.3-.4c0-.1-.2-.2-.3-.3.8-.3,1.5-.8,2.3-1.3s1.4-1.1,1.9-1.7c.6-.6,1-1.2,1.4-1.7h1.3c.4.5.8,1,1.2,1.4.4.5.9.9,1.4,1.3.5.4,1,.7,1.6,1,.5.3,1.1.6,1.6.8-.2.2-.3.3-.4.6s-.3.4-.4.6c-.7-.3-1.4-.7-2.1-1.2s-1.4-1-2-1.5-1.1-1.1-1.5-1.7h0ZM105,44.7h11.2v1.2h-11.2v-1.2ZM105.1,48.8c.8,0,1.7,0,2.8,0,1.1,0,2.2,0,3.3-.1s2.3,0,3.5-.1v1.2c-1.2,0-2.3.1-3.4.2-1.1,0-2.2,0-3.3.2s-1.9,0-2.8.1l-.2-1.3h0ZM108.5,45.5l1.4.4c-.2.4-.4.9-.7,1.3s-.5.9-.7,1.3c-.2.4-.5.8-.7,1.1l-1.1-.4c.2-.3.4-.7.6-1.2s.4-.9.6-1.3c.2-.5.3-.9.5-1.3h0ZM107.3,42.1h6.4v1.2h-6.4v-1.2ZM111.8,46.9l1.1-.6c.4.3.8.7,1.2,1.1.4.4.8.8,1.1,1.2.3.4.6.8.8,1.1l-1.2.7c-.2-.3-.5-.7-.8-1.2s-.7-.9-1.1-1.3-.8-.8-1.2-1.2h0Z"/>
          <path d="M123,40.5h.5s.7.4.7.4c-.3.8-.8,1.7-1.3,2.4s-1.1,1.5-1.8,2.1-1.3,1.2-1.9,1.6c0-.1,0-.2-.2-.4,0-.2-.2-.3-.2-.5s-.2-.2-.2-.3c.6-.3,1.2-.8,1.8-1.3.6-.5,1.1-1.1,1.6-1.8.5-.7.8-1.3,1.1-2v-.2ZM119,40.5h4.5v1.2h-4.5v-1.2ZM121.1,38h1.3v3.1h-1.3s0-3.1,0-3.1ZM121.1,44.8l1.3-1.5v7.3h-1.3v-5.7h0ZM122.2,43.6c.1,0,.3.2.5.4s.5.4.7.6.5.4.7.6c.2.2.4.3.5.4l-.8,1c-.1-.2-.3-.3-.5-.6s-.4-.5-.6-.7c-.2-.2-.4-.5-.7-.7-.2-.2-.4-.4-.5-.5l.7-.7h0ZM123.8,48.9h7.7v1.3h-7.7v-1.3ZM124.3,42.3h6.8v1.2h-6.8v-1.2ZM127.1,38.1h1.3v11.4h-1.3s0-11.4,0-11.4Z"/>
          <path d="M143.6,40.4c0,.1,0,.2-.1.4s0,.3-.1.4c0,.3-.2.7-.3,1.2-.1.4-.3.9-.4,1.3s-.4.9-.6,1.3c-.2.4-.5.8-.7,1.2-.4.5-.9,1-1.4,1.5-.5.5-1.1.9-1.8,1.2-.7.4-1.4.7-2.2.9l-1.2-1.3c.9-.2,1.7-.5,2.3-.8s1.2-.7,1.7-1.1.9-.8,1.3-1.3c.3-.4.6-.8.8-1.3.2-.5.4-1,.6-1.5s.3-.9.3-1.4h-6.6c-.3,0-.6,0-.8,0-.3,0-.5,0-.6,0v-1.5c.1,0,.3,0,.4,0,.2,0,.4,0,.5,0,.2,0,.3,0,.5,0h6.6c.1,0,.2,0,.4,0,.2,0,.3,0,.4,0l1,.7h0Z"/>
          <path d="M155.8,42.6c0,0-.1.1-.2.2,0,0-.1.2-.2.2-.1.2-.3.4-.4.7s-.4.6-.7.9-.5.6-.8.9-.6.5-.8.7l-1.1-.7c.3-.2.6-.4.9-.7.3-.3.5-.6.8-.8.2-.3.4-.5.5-.7h-6.2c-.2,0-.4,0-.7,0s-.4,0-.7,0v-1.4c.2,0,.4,0,.7,0s.5,0,.7,0h6.8c.1,0,.2,0,.3,0,.1,0,.2,0,.3,0l.8.7h0ZM151.2,44c0,.5,0,1.1,0,1.6,0,.5-.1,1-.2,1.4-.1.5-.3.9-.5,1.3s-.5.8-.9,1.2-.9.7-1.5,1l-1.2-.9c.2,0,.3-.1.5-.2.2,0,.3-.2.5-.3.6-.4,1-.8,1.3-1.2.3-.4.5-.9.6-1.4,0-.5.1-1,.1-1.6s0-.3,0-.5c0-.2,0-.3,0-.4h1.5Z"/>
          <path d="M157.6,44.3c1.2-.3,2.3-.7,3.3-1.1,1-.4,1.9-.9,2.6-1.4.5-.3.9-.6,1.4-1,.5-.4.9-.7,1.3-1.1s.8-.8,1.1-1.1l1.1,1.1c-.4.4-.8.8-1.3,1.2-.5.4-.9.8-1.4,1.1-.5.4-1,.7-1.6,1-.5.3-1.1.6-1.7.9-.6.3-1.3.6-2,.9s-1.4.5-2.1.8l-.7-1.3h0ZM163.3,42.6l1.5-.4v6.7c0,.2,0,.4,0,.6,0,.2,0,.3,0,.4h-1.7c0,0,0-.2,0-.4,0-.2,0-.4,0-.6v-6.3h0Z"/>
          <path d="M171,48.4c.8-.1,1.4-.3,2.1-.5.6-.2,1.2-.4,1.8-.7.5-.2,1-.5,1.4-.8.7-.4,1.4-1,2-1.5.6-.6,1.1-1.2,1.6-1.8s.8-1.2,1.1-1.8l.8,1.5c-.3.6-.7,1.2-1.2,1.8s-1,1.2-1.6,1.7c-.6.5-1.2,1-1.9,1.5-.4.3-.9.5-1.5.8-.5.3-1.1.5-1.7.7-.6.2-1.3.4-2,.5l-.9-1.4h0ZM172.4,39.3c.2.2.5.4.8.6s.6.5,1,.8c.3.3.6.5.9.8s.5.5.7.7l-1.1,1.1c-.2-.2-.4-.4-.7-.7s-.6-.5-.9-.8c-.3-.3-.6-.5-.9-.8-.3-.2-.6-.5-.9-.6l1-1h0Z"/>
          <path d="M195.3,40.2c0,0-.1.2-.2.3,0,.1-.2.2-.2.3-.2.3-.4.7-.8,1.2s-.7.9-1.1,1.4c-.4.5-.9.8-1.4,1.2l-1.1-.9c.3-.2.6-.4.9-.6s.6-.5.8-.8.5-.5.7-.8c.2-.2.3-.5.4-.7h-7.4c-.3,0-.5,0-.8,0-.2,0-.5,0-.8,0v-1.5c.2,0,.5,0,.8,0s.5,0,.8,0h7.9c.1,0,.3,0,.4,0s.2,0,.3,0l.9.8h0ZM189.8,42c0,.7,0,1.4,0,2,0,.6-.1,1.2-.2,1.8s-.3,1.1-.6,1.6-.6,1-1.1,1.4-1,.8-1.8,1.2l-1.2-1c.2,0,.4-.2.6-.3.2-.1.4-.2.7-.4.5-.3.9-.7,1.2-1s.5-.8.7-1.2.2-.9.3-1.4,0-1,0-1.6,0-.4,0-.5c0-.2,0-.4,0-.5h1.5,0Z"/>
          <path d="M208.4,41.6c0,0-.1.2-.2.3,0,.1-.1.2-.2.3-.1.3-.3.6-.6.9s-.4.7-.7,1.1c-.2.4-.5.7-.8,1-.3.3-.5.6-.8.9l-1.2-.7c.3-.3.6-.6.9-1s.6-.7.8-1.1.4-.7.6-.9c0,0-.3,0-.6.1-.3,0-.7.1-1.2.2s-1,.2-1.5.3-1.1.2-1.7.3-1.1.2-1.7.3c-.5,0-1,.2-1.4.3s-.8.2-1,.2l-.3-1.4c.2,0,.6,0,1-.1.4,0,.9-.2,1.4-.2.5,0,1.1-.2,1.7-.3.6-.1,1.2-.2,1.7-.3.6-.1,1.1-.2,1.6-.3s.9-.2,1.3-.3c.4,0,.6-.1.8-.2.2,0,.3,0,.5-.1.1,0,.3,0,.4-.2l1,.8h0ZM200.2,47.6v-7.8c0-.2,0-.3,0-.5,0-.2,0-.3,0-.4h1.6c0,.2,0,.4,0,.7,0,.2,0,.5,0,.7v7c0,.3,0,.5.1.7s.3.3.5.4c.3,0,.7.1,1.2.1s1,0,1.5,0c.5,0,.9,0,1.4-.1.5,0,.9-.1,1.4-.2v1.5c-.4,0-.9,0-1.3.2-.4,0-.9,0-1.4,0-.5,0-1,0-1.5,0s-1.2,0-1.7-.1-.8-.2-1-.4c-.2-.2-.4-.4-.5-.7,0-.3-.1-.6-.1-1h0Z"/>
          <path d="M212.3,42.2c0,.2.2.4.3.6s.2.5.4.9c.1.3.2.6.3.9.1.3.2.5.3.7l-1.3.5c0-.2-.1-.4-.2-.7s-.2-.6-.4-.9c-.1-.3-.2-.6-.4-.9-.1-.3-.2-.5-.3-.6l1.3-.5h0ZM220.3,42.4c0,.2-.1.3-.2.5,0,.1,0,.2-.1.3-.2.7-.4,1.4-.7,2.1s-.7,1.3-1.2,2c-.6.8-1.3,1.5-2.1,2s-1.6,1-2.3,1.3l-1.1-1.2c.5-.1,1-.3,1.6-.6.5-.3,1.1-.6,1.6-1s.9-.8,1.3-1.3c.3-.4.6-.8.8-1.3s.5-1,.6-1.6c.2-.6.3-1.1.3-1.7l1.5.5h0ZM215.4,41.5c0,.1.1.3.2.6.1.3.2.5.3.8.1.3.2.6.3.9s.2.5.2.6l-1.3.5c0-.2-.1-.4-.2-.6s-.2-.5-.3-.8c-.1-.3-.2-.6-.3-.8-.1-.3-.2-.5-.3-.7l1.3-.4h0Z"/>
          <path d="M224.3,48.1v-7.8c0-.2,0-.5,0-.8,0-.3,0-.5,0-.8h1.7c0,.2,0,.5,0,.7,0,.3,0,.5,0,.8v7.8c0,.1,0,.3,0,.5,0,.2,0,.4,0,.6s0,.4,0,.6h-1.7c0-.2,0-.5,0-.8,0-.3,0-.6,0-.9ZM225.4,42.3c.4.1.9.3,1.5.5s1.1.4,1.7.6,1.1.4,1.6.6c.5.2.9.4,1.3.6l-.6,1.5c-.4-.2-.8-.4-1.3-.6s-1-.4-1.4-.6c-.5-.2-1-.4-1.4-.5s-.9-.3-1.2-.4v-1.5h0Z"/>
        </g>
        <g>
          <path d="M66.5,33.8V7.8h15.3v3.5h-11.3v7.9h9.6v3.4h-9.6v11.2h-4.1,0Z"/>
          <path d="M89,10.8c-.8,0-1.4-.2-1.8-.7s-.7-1-.7-1.8.2-1.3.7-1.7c.5-.4,1.1-.7,1.8-.7s1.3.2,1.8.7c.5.4.7,1,.7,1.7s-.2,1.4-.7,1.8-1.1.7-1.8.7ZM86.9,33.8V14.4h4.1v19.4h-4.1Z"/>
          <path d="M98,33.8V14.4h3.3l.3,2.7h0c.9-.9,1.8-1.6,2.9-2.2,1-.6,2.2-.9,3.5-.9,2.1,0,3.6.7,4.5,2s1.4,3.2,1.4,5.7v12.2h-4.1v-11.7c0-1.7-.3-2.9-.8-3.6s-1.3-1.1-2.5-1.1-1.7.2-2.4.6c-.7.4-1.5,1.1-2.3,2v13.7s-4.1,0-4,0Z"/>
          <path d="M128.9,34.3c-1.8,0-3.4-.4-4.8-1.2s-2.6-2-3.4-3.5-1.3-3.3-1.3-5.5.2-3,.7-4.2c.5-1.3,1.2-2.3,2-3.2.8-.9,1.8-1.6,2.8-2,1.1-.5,2.1-.7,3.2-.7,1.7,0,3.2.4,4.3,1.1s2.1,1.8,2.7,3.2.9,3,.9,4.8,0,.8,0,1.1c0,.4,0,.7-.2.9h-12.6c.1,1.2.4,2.3,1,3.1s1.2,1.6,2.1,2,1.8.7,2.9.7,1.7-.1,2.4-.4,1.5-.6,2.2-1.1l1.4,2.6c-.9.6-1.9,1.1-3,1.5-1.1.4-2.3.6-3.5.6h0ZM123.4,22.3h9.3c0-1.6-.4-2.9-1.1-3.8s-1.8-1.4-3.2-1.4-1.6.2-2.3.6-1.3,1-1.8,1.8-.8,1.7-.9,2.9Z"/>
          <path d="M147.4,33.8l8.6-26h4.7l8.6,26h-4.3l-4.2-14.1c-.4-1.4-.8-2.8-1.2-4.3s-.8-2.9-1.2-4.4h-.1c-.4,1.5-.8,2.9-1.2,4.4-.4,1.4-.8,2.8-1.2,4.3l-4.2,14.1h-4.2ZM152.2,26.4v-3.2h12.1v3.2h-12.1Z"/>
          <path d="M179.1,34.3c-1.3,0-2.6-.3-3.9-.8-1.3-.5-2.4-1.2-3.4-1.9l1.9-2.6c.9.7,1.7,1.2,2.6,1.6.9.4,1.8.6,2.9.6s2-.2,2.6-.8c.6-.5.8-1.1.8-1.9s-.2-1.1-.6-1.5c-.4-.4-.9-.8-1.6-1s-1.3-.6-2-.8c-.9-.3-1.7-.7-2.6-1.2-.8-.5-1.5-1-2.1-1.8-.5-.7-.8-1.6-.8-2.7s.3-2.1.8-2.9c.6-.9,1.3-1.5,2.4-2,1-.5,2.3-.7,3.7-.7s2.5.2,3.5.7c1.1.4,2,1,2.7,1.6l-1.9,2.5c-.7-.5-1.4-.9-2.1-1.2-.7-.3-1.4-.5-2.2-.5s-1.9.2-2.4.7c-.5.5-.8,1-.8,1.7s.2,1,.6,1.3.9.7,1.5.9c.6.3,1.3.5,2,.8.7.2,1.4.5,2,.8.7.3,1.3.7,1.8,1.1.5.4,1,1,1.3,1.6s.5,1.4.5,2.3-.3,2.1-.9,3c-.6.9-1.4,1.6-2.5,2.2s-2.4.8-4.1.8h0Z"/>
          <path d="M196.9,34.3c-1.3,0-2.6-.3-3.9-.8-1.3-.5-2.4-1.2-3.4-1.9l1.9-2.6c.9.7,1.7,1.2,2.6,1.6.9.4,1.8.6,2.9.6s2-.2,2.6-.8c.6-.5.8-1.1.8-1.9s-.2-1.1-.6-1.5c-.4-.4-.9-.8-1.6-1s-1.3-.6-2-.8c-.9-.3-1.7-.7-2.6-1.2-.8-.5-1.5-1-2.1-1.8-.5-.7-.8-1.6-.8-2.7s.3-2.1.8-2.9c.6-.9,1.3-1.5,2.4-2,1-.5,2.3-.7,3.7-.7s2.5.2,3.5.7c1.1.4,2,1,2.7,1.6l-1.9,2.5c-.7-.5-1.4-.9-2.1-1.2-.7-.3-1.4-.5-2.2-.5s-1.9.2-2.4.7c-.5.5-.8,1-.8,1.7s.2,1,.6,1.3.9.7,1.5.9c.6.3,1.3.5,2,.8.7.2,1.4.5,2,.8.7.3,1.3.7,1.8,1.1.5.4,1,1,1.3,1.6s.5,1.4.5,2.3-.3,2.1-.9,3c-.6.9-1.4,1.6-2.5,2.2s-2.4.8-4.1.8h0Z"/>
          <path d="M217.6,34.3c-1.8,0-3.4-.4-4.8-1.2s-2.6-2-3.4-3.5-1.3-3.3-1.3-5.5.2-3,.7-4.2c.5-1.3,1.2-2.3,2-3.2.9-.9,1.8-1.6,2.9-2s2.1-.7,3.2-.7c1.7,0,3.2.4,4.3,1.1s2.1,1.8,2.7,3.2.9,3,.9,4.8,0,.8,0,1.1c0,.4,0,.7-.2.9h-12.6c.1,1.2.4,2.3,1,3.1s1.2,1.6,2.1,2,1.8.7,2.9.7,1.7-.1,2.4-.4,1.5-.6,2.2-1.1l1.4,2.6c-.9.6-1.9,1.1-3,1.5-1.1.4-2.3.6-3.5.6h0ZM212,22.3h9.3c0-1.6-.4-2.9-1.1-3.8s-1.8-1.4-3.2-1.4-1.6.2-2.3.6c-.7.4-1.3,1-1.8,1.8s-.8,1.7-.9,2.9h0Z"/>
          <path d="M236.3,34.3c-1.5,0-2.6-.3-3.5-.9s-1.5-1.4-1.9-2.4-.6-2.2-.6-3.6v-9.8h-2.8v-3l3-.2.5-5.3h3.4v5.4h5v3.3h-5v9.8c0,1.1.2,2,.7,2.6.4.6,1.2.9,2.2.9s.7,0,1.1-.1c.4,0,.7-.2,1-.3l.7,3c-.5.2-1.1.3-1.7.5s-1.3.2-2.1.2h0Z"/>
        </g>
      </g>
    </g>
  </g>
</svg>